<svg width="1067" height="1025" viewBox="0 0 1067 1025" fill="none" xmlns="http://www.w3.org/2000/svg">
<path d="M423.42 1024.33H198.956V0.334007H423.42V1024.33ZM245.333 977.957H377.043V46.711H245.333V977.957ZM1045.33 268.857H21.333V191.547L212.545 0.333008H403.478L1045.33 183.661V268.857ZM67.71 222.478H998.956V218.628L396.986 46.711H231.883L67.71 210.885V222.478ZM1066.67 1024.33H0V977.956H1066.67V1024.33ZM933.797 669.643C927.757 669.643 921.827 669.169 916.041 668.261L916.684 668.345C862.884 660.077 822.054 614.455 821.334 559.157V559.082L867.71 558.387C868.25 594.342 897.524 623.281 933.557 623.281C969.927 623.281 999.412 593.796 999.412 557.425C999.412 532.213 985.244 510.31 964.436 499.243L964.08 499.07L963.106 498.56C931.031 479.56 909.863 445.13 909.863 405.755C909.863 404.615 909.881 403.479 909.916 402.347L909.912 402.512V245.667H956.289V403.627C956.267 404.227 956.255 404.93 956.255 405.637C956.255 427.881 968.127 447.351 985.88 458.057L986.156 458.212C1021.91 477.459 1045.81 514.622 1045.81 557.367C1045.81 619.257 995.711 669.447 933.856 669.599H933.842L933.797 669.643ZM238.515 484.231L327.559 395.419L416.603 306.607L238.515 484.231Z" fill="black"/>
</svg>
