<?xml version="1.0" encoding="iso-8859-1"?>
<!-- Uploaded to: SVG Repo, www.svgrepo.com, Generator: SVG Repo Mixer Tools -->
<svg fill="#000000" height="800px" width="800px" version="1.1" id="Layer_1" xmlns="http://www.w3.org/2000/svg" xmlns:xlink="http://www.w3.org/1999/xlink" 
	 viewBox="0 0 512 512" xml:space="preserve">
<g>
	<g>
		<path d="M495.875,64.11L362.86,0.77c-1.511-0.719-3.21-0.943-4.855-0.635L18.079,63.474c-3.749,0.699-6.467,3.97-6.467,7.783
			v44.338c0,4.373,3.545,7.918,7.918,7.918h78.647v60.173H72.313c-4.373,0-7.918,3.545-7.918,7.918v54.895
			c0,19.856,14.696,36.34,33.781,39.158v29.461c0,4.366-3.551,7.917-7.917,7.917h-2.111c-4.366,0-7.917-3.551-7.917-7.917v-7.39
			c0-4.373-3.545-7.918-7.918-7.918c-4.373,0-7.918,3.545-7.918,7.918v7.39c0,13.098,10.655,23.753,23.753,23.753h2.111
			c13.098,0,23.753-10.655,23.753-23.753v-29.461c19.085-2.818,33.781-19.302,33.781-39.158v-54.895
			c0-4.373-3.545-7.918-7.918-7.918h-25.864v-60.173h174.186v15.307c0,4.373,3.544,7.918,7.918,7.918s7.918-3.545,7.918-7.918
			v-15.307h68.619v79.175h-68.619v-21.641c0-4.373-3.544-7.918-7.918-7.918s-7.918,3.545-7.918,7.918v29.559
			c0,4.373,3.544,7.918,7.918,7.918h13.196V456.05h-51.2c-4.373,0-7.917,3.545-7.917,7.918v40.115c0,4.373,3.545,7.918,7.917,7.918
			h99.233c4.374,0,7.917-3.545,7.917-7.918c0-4.373-3.544-7.918-7.917-7.918h-91.315v-24.28h144.627v24.28h-11.085
			c-4.374,0-7.918,3.545-7.918,7.918c0,4.373,3.544,7.918,7.918,7.918h19.002c4.374,0,7.918-3.545,7.918-7.918v-40.115
			c0-4.373-3.544-7.918-7.918-7.918h-51.2V218.524h13.196c4.374,0,7.918-3.545,7.918-7.918v-87.093h32.726v32.198
			c0,4.373,3.544,7.917,7.917,7.917h63.34c4.374,0,7.918-3.545,7.918-7.917V71.258C500.388,68.204,498.631,65.422,495.875,64.11z
			 M27.447,79.149c0.175,0.012,0.349,0.026,0.528,0.026h18.89L27.447,98.593V79.149z M40.756,107.678l23.112-23.112l23.113,23.112
			H40.756z M131.959,199.522v46.977c0,13.098-10.655,23.753-23.753,23.753h-4.223c-13.098,0-23.753-10.655-23.753-23.753v-46.977
			H131.959z M106.095,104.4L80.872,79.175h50.447L106.095,104.4z M125.21,107.678l23.112-23.112l23.113,23.112H125.21z
			 M165.325,79.175h50.447L190.549,104.4L165.325,79.175z M209.662,107.678l23.113-23.112l23.112,23.112H209.662z M275.002,104.398
			l-25.223-25.223h50.446L275.002,104.398z M309.311,107.678h-15.194l15.194-15.194V107.678z M325.146,107.678V92.484l15.194,15.194
			H325.146z M351.538,96.481l-17.306-17.306h17.306V96.481z M351.538,63.34H105.242l246.296-45.893V63.34z M325.146,229.722
			l23.113,23.112l-23.113,23.112V229.722z M325.146,314.176l23.113,23.112L325.146,360.4V314.176z M325.146,398.63l23.113,23.111
			l-23.113,23.113V398.63z M351.538,456.05h-15.194l15.194-15.194V456.05z M351.538,402.625l-23.112-23.112l23.112-23.112V402.625z
			 M351.538,318.172l-23.112-23.112l23.112-23.112V318.172z M351.538,233.718l-15.194-15.194h15.194V233.718z M367.373,20.458
			l90.055,42.882h-90.055V20.458z M367.373,96.481V79.175h17.306L367.373,96.481z M378.571,107.678l23.112-23.112l23.112,23.112
			H378.571z M418.686,79.175h50.446l-25.223,25.223L418.686,79.175z M484.553,147.794h-47.505v-24.28h47.505V147.794z
			 M484.553,107.678h-21.528l21.528-21.528V107.678z"/>
	</g>
</g>
</svg>