<?xml version="1.0" encoding="iso-8859-1"?>
<!-- Uploaded to: SVG Repo, www.svgrepo.com, Generator: SVG Repo Mixer Tools -->
<svg version="1.1" id="Layer_1" xmlns="http://www.w3.org/2000/svg" xmlns:xlink="http://www.w3.org/1999/xlink" 
	 viewBox="0 0 512 512" xml:space="preserve">
<rect x="426.745" y="320.418" style="fill:#F07057;" width="75.056" height="75.056"/>
<polygon style="fill:#E8E8E8;" points="161.147,63.235 231.608,63.235 231.608,21.457 121.529,21.457 121.529,145.296 
	231.608,145.296 231.608,99.952 161.147,99.952 "/>
<rect x="161.147" y="63.235" style="fill:#F07057;" width="70.456" height="36.717"/>
<path d="M221.408,372.565v117.978c0,5.633,4.566,10.199,10.199,10.199s10.199-4.566,10.199-10.199V155.495h212.268v85.206
	c0,5.633,4.566,10.199,10.199,10.199s10.199-4.566,10.199-10.199v-85.206h22.324c5.633,0,10.199-4.566,10.199-10.199v-41.279
	c0-4.465-2.905-8.411-7.167-9.738L234.64,11.719c-0.967-0.301-1.96-0.436-2.95-0.443c-0.029-0.002-0.053-0.018-0.082-0.018h-110.08
	c-0.055,0-0.106,0.014-0.158,0.024c-2.095,0.033-4.17,0.686-5.918,1.983L4.124,95.825C1.53,97.748,0,100.786,0,104.017v41.279
	c0,5.633,4.566,10.199,10.199,10.199h101.13v335.048c0,5.633,4.566,10.199,10.199,10.199c5.633,0,10.199-4.566,10.199-10.199
	v-27.499L221.408,372.565z M203.231,155.495l-71.503,71.503v-71.503H203.231z M398.602,122.74l-56.067-56.067l85.512,26.622
	L398.602,122.74z M320.421,73.408l61.689,61.689H258.732L320.421,73.408z M221.408,89.753h-50.062V73.434h50.062V89.753z
	 M221.408,166.166v162.155l-81.078-81.078L221.408,166.166z M486.598,135.097h-71.504l31.999-31.999
	c0.948-0.949,1.662-2.039,2.159-3.201l37.344,11.626v23.573H486.598z M241.807,35.315l67.002,20.859l-67.002,67.001L241.807,35.315
	L241.807,35.315z M221.408,53.036h-60.261c-5.633,0-10.199,4.566-10.199,10.199v36.717c0,5.633,4.566,10.199,10.199,10.199h60.261
	v24.945h-89.681V31.656h89.681V53.036z M20.398,109.151l90.931-67.432v93.379H20.398V109.151z M131.728,433.396V267.489
	l82.953,82.953L131.728,433.396z"/>
<path d="M464.274,266.199c-5.633,0-10.199,4.566-10.199,10.199v7.139c0,5.633,4.566,10.199,10.199,10.199
	s10.199-4.566,10.199-10.199v-7.139C474.473,270.765,469.907,266.199,464.274,266.199z"/>
<path d="M501.801,310.222h-75.054c-5.633,0-10.199,4.566-10.199,10.199v75.053c0,5.633,4.566,10.199,10.199,10.199h75.054
	c5.633,0,10.199-4.566,10.199-10.199v-75.053C512,314.788,507.434,310.222,501.801,310.222z M491.602,385.275h-54.656V330.62h54.656
	V385.275z"/>
</svg>